# xmcd
#
# Track frame offsets:
#	150
#	14778
#	35455
#	57282
#	72785
#	98329
#	122647
#	137762
#	154788
#	163462
#
# Disc length: 2908 seconds
#
# Revision: 1
# Processed by: cddbd v1.5.2PL0 Copyright (c) Steve Scherf et al.
# Submitted via: Good old e-mail
#
DISCID=850b5a0a
DTITLE=Winterkill - Feast for a Beggar
DYEAR=1997
DGENRE=Metal
TTITLE0=Erotic Abode
TTITLE1=Virus
TTITLE2=A Feast for a Beggar
TTITLE3=Resurrected
TTITLE4=Eternity
TTITLE5=Far and Beyond
TTITLE6=Hellraiser
TTITLE7=Solitary Man
TTITLE8=Funeral March
TTITLE9=When We Die - Beyond The Black
EXTD=
EXTT0=
EXTT1=
EXTT2=
EXTT3=
EXTT4=
EXTT5=
EXTT6=
EXTT7=
EXTT8=
EXTT9=
PLAYORDER=
